<svg xmlns="http://www.w3.org/2000/svg" viewBox="-1 -777 9501 804" width="950" height="80.4" role="img" aria-label="ACID//STATES">
  <title>ACID//STATES</title>
  <g fill="#0c0d10">
    <path d="M227.2 -135.2V-321H740.8V-135.2ZM642.4 -750 977.6 0H729.4L456.8 -648.8H519.8L247.2 0H-1L334.2 -750Z"/>
    <path d="M1909.6 -319.4Q1898 -218.6 1840.3 -142.9Q1782.6 -67.2 1688.2 -25Q1593.8 17.2 1472 17.2Q1339.6 17.2 1240.6 -31.8Q1141.6 -80.8 1086.6 -169.1Q1031.6 -257.4 1031.6 -375Q1031.6 -492.6 1086.6 -580.9Q1141.6 -669.2 1240.6 -718.2Q1339.6 -767.2 1472 -767.2Q1593.8 -767.2 1688.2 -725Q1782.6 -682.8 1840.3 -607.2Q1898 -531.6 1909.6 -430.6H1675.8Q1666.4 -473.8 1639.9 -504.4Q1613.4 -535 1571 -551.3Q1528.6 -567.6 1471.8 -567.6Q1407.8 -567.6 1361.7 -544.6Q1315.6 -521.6 1291 -478.2Q1266.4 -434.8 1266.4 -375Q1266.4 -315.2 1291 -272.2Q1315.6 -229.2 1361.7 -205.8Q1407.8 -182.4 1471.8 -182.4Q1528.6 -182.4 1571 -197.8Q1613.4 -213.2 1639.9 -243.9Q1666.4 -274.6 1675.8 -319.4Z"/>
    <path d="M2023.8 -750H2256.6V0H2023.8Z"/>
    <path d="M2792 -750Q2927.2 -750 3028.5 -703.4Q3129.8 -656.8 3186.2 -572.7Q3242.6 -488.6 3242.6 -375Q3242.6 -262.2 3186.2 -177.7Q3129.8 -93.2 3028.5 -46.6Q2927.2 0 2792 0H2405.8V-750ZM2637 -101.2 2529.6 -207.2H2809.8Q2871 -207.2 2915.5 -227.7Q2960 -248.2 2983.9 -285.9Q3007.8 -323.6 3007.8 -375Q3007.8 -427.4 2983.9 -464.6Q2960 -501.8 2915.5 -522.3Q2871 -542.8 2809.8 -542.8H2529.6L2637 -648.8Z"/>
    <path d="M4316.6 -246.4H4553Q4557.4 -219.8 4578.9 -200.6Q4600.4 -181.4 4637.2 -170.9Q4674 -160.4 4724.4 -160.4Q4792.6 -160.4 4831.2 -176.3Q4869.8 -192.2 4869.8 -224.6Q4869.8 -247.8 4847.8 -262.2Q4825.8 -276.6 4760.8 -282L4629.2 -292.6Q4466.8 -305 4394.5 -363.7Q4322.2 -422.4 4322.2 -520.6Q4322.2 -601.6 4368.9 -656.5Q4415.6 -711.4 4500 -739.3Q4584.4 -767.2 4697.6 -767.2Q4808.2 -767.2 4893.8 -736Q4979.4 -704.8 5029.9 -648.5Q5080.4 -592.2 5085.2 -517H4848.8Q4845.4 -539.4 4826.5 -555.6Q4807.6 -571.8 4774 -580.7Q4740.4 -589.6 4693 -589.6Q4630.6 -589.6 4594.4 -574.8Q4558.2 -560 4558.2 -529.6Q4558.2 -508 4579.5 -494.1Q4600.8 -480.2 4659.4 -474.8L4804.2 -463Q4912.4 -454.6 4978.5 -429.5Q5044.6 -404.4 5074.8 -360.5Q5105 -316.6 5105 -251.4Q5105 -170.6 5057 -110.2Q5009 -49.8 4922.3 -16.3Q4835.6 17.2 4720 17.2Q4600.8 17.2 4510.7 -15.7Q4420.6 -48.6 4369.8 -108.2Q4319 -167.8 4316.6 -246.4Z"/>
    <path d="M5456 -649H5688.8V0H5456ZM5178 -750H5966.8V-542.8H5178Z"/>
    <path d="M6234.2 -135.2V-321H6747.8V-135.2ZM6649.4 -750 6984.6 0H6736.4L6463.8 -648.8H6526.8L6254.2 0H6006L6341.2 -750Z"/>
    <path d="M7302 -649H7534.8V0H7302ZM7024 -750H7812.8V-542.8H7024Z"/>
    <path d="M7897 -750L8130 -750L8130 0L7897 0Z M7897 -186L8613 -186L8613 0L7897 0Z M7897 -468L8543 -468L8543 -282L7897 -282Z M7897 -750L8613 -750L8613 -564L7897 -564Z"/>
    <path d="M8711.6 -246.4H8948Q8952.4 -219.8 8973.9 -200.6Q8995.4 -181.4 9032.2 -170.9Q9069 -160.4 9119.4 -160.4Q9187.6 -160.4 9226.2 -176.3Q9264.8 -192.2 9264.8 -224.6Q9264.8 -247.8 9242.8 -262.2Q9220.8 -276.6 9155.8 -282L9024.2 -292.6Q8861.8 -305 8789.5 -363.7Q8717.2 -422.4 8717.2 -520.6Q8717.2 -601.6 8763.9 -656.5Q8810.6 -711.4 8895 -739.3Q8979.4 -767.2 9092.6 -767.2Q9203.2 -767.2 9288.8 -736Q9374.4 -704.8 9424.9 -648.5Q9475.4 -592.2 9480.2 -517H9243.8Q9240.4 -539.4 9221.5 -555.6Q9202.6 -571.8 9169 -580.7Q9135.4 -589.6 9088 -589.6Q9025.6 -589.6 8989.4 -574.8Q8953.2 -560 8953.2 -529.6Q8953.2 -508 8974.5 -494.1Q8995.8 -480.2 9054.4 -474.8L9199.2 -463Q9307.4 -454.6 9373.5 -429.5Q9439.6 -404.4 9469.8 -360.5Q9500 -316.6 9500 -251.4Q9500 -170.6 9452 -110.2Q9404 -49.8 9317.3 -16.3Q9230.6 17.2 9115 17.2Q8995.8 17.2 8905.7 -15.7Q8815.6 -48.6 8764.8 -108.2Q8714 -167.8 8711.6 -246.4Z"/>
  </g>
  <g fill="#c8ff00">
    <path d="M3589.8 -777H3756.4L3476.4 27H3309.8Z"/>
    <path d="M4081.8 -777H4248.4L3968.4 27H3801.8Z"/>
  </g>
</svg>
